<?xml version="1.0" encoding="UTF-8"?>
<svg xmlns="http://www.w3.org/2000/svg" width="16" height="16" viewBox="0 0 16 16">
  <g fill="currentColor">
    <path d="M8 1c-1.657 0-3 1.343-3 3v4c0 1.657 1.343 3 3 3s3-1.343 3-3V4c0-1.657-1.343-3-3-3z"/>
    <path d="M3.5 7a.5.5 0 0 0-.5.5V8c0 2.481 1.804 4.535 4.167 4.93V14H5.5a.5.5 0 0 0 0 1h5a.5.5 0 0 0 0-1H8.833v-1.07C11.196 12.535 13 10.481 13 8v-.5a.5.5 0 0 0-1 0V8a4 4 0 0 1-8 0v-.5a.5.5 0 0 0-.5-.5z"/>
  </g>
  <circle cx="12.5" cy="3.5" r="2.5" fill="#e01b24"/>
</svg>
